<svg
    xmlns="http://www.w3.org/2000/svg"
    width="190.5mm"
    height="190.5mm"
    viewBox="0 0 190.5 190.5"
    style="stroke: white;">
    <g class="f-inline">
        <path d="m 73.659502,134.83801 c -1.168868,3.01119 -5.568296,5.36712 -10.301206,0.49477 -5.550996,19.1424 9.272908,23.24075 20.722931,18.69261 2.174084,8.30066 7.86087,12.57066 10.699854,15.23766 3.571861,-3.45325 7.643819,-6.37512 10.845899,-15.3524 14.98923,4.09713 25.88211,-2.51846 20.61778,-18.85873 -8.06987,7.59799 -15.08004,-2.46267 -6.26077,-10.34041 8.8259,-8.53945 19.30295,-9.65594 28.97461,-0.21402 C 177.94846,97.871855 150.16104,60.930082 118.51203,79.492469 121.04681,66.318995 120.29765,44.235763 94.678981,20.155752 71.876602,41.90952 67.871439,61.075919 70.978157,79.264319 65.330354,74.939006 49.652607,72.575696 42.840137,76.862104"
              style="fill: none; stroke-linecap: butt; stroke-linejoin: round; stroke-miterlimit: 4; stroke-opacity: 1; stroke-width: 3.75; stroke-linecap: butt; stroke-dasharray: 430.514, 430.514; stroke-dashoffset: 0;"></path>
        <path d="m 37.204165,80.411441 c -2.667744,2.098061 -4.744259,4.813339 -6.457632,7.857641"
              style="fill: none; stroke-linecap: butt; stroke-linejoin: round; stroke-miterlimit: 4; stroke-opacity: 1; stroke-width: 3.75; stroke-linecap: butt; stroke-dasharray: 10.2369, 10.2369; stroke-dashoffset: 0;"></path>
        <path d="m 28.627146,94.676985 c -0.773654,2.320491 -0.425229,6.979965 0.01972,9.681605"
              style="fill: none; stroke-linecap: butt; stroke-linejoin: round; stroke-miterlimit: 4; stroke-opacity: 1; stroke-width: 3.75; stroke-linecap: butt; stroke-dasharray: 9.74878, 9.74878; stroke-dashoffset: 0;"></path>
        <path d="m 29.700191,108.66148 c 0.629272,1.94776 1.482521,3.69029 2.549976,5.3353"
              style="fill: none; stroke-linecap: butt; stroke-linejoin: round; stroke-miterlimit: 4; stroke-opacity: 1; stroke-width: 3.75; stroke-linecap: butt; stroke-dasharray: 5.9308, 5.9308; stroke-dashoffset: 0;"></path>
        <path d="m 35.985479,119.54106 c 1.563551,2.10846 2.465417,2.86207 4.441104,5.12522 1.605956,-1.1047 3.029251,-2.48237 4.857304,-3.22842"
              style="fill: none; stroke-linecap: butt; stroke-linejoin: round; stroke-miterlimit: 4; stroke-opacity: 1; stroke-width: 3.75; stroke-linecap: butt; stroke-dasharray: 12.6339, 12.6339; stroke-dashoffset: 0;"></path>
        <path d="m 49.59736,119.50119 c 2.111449,-0.82947 4.110525,-1.32728 6.130694,-1.59435"
              style="fill: none; stroke-linecap: butt; stroke-linejoin: round; stroke-miterlimit: 4; stroke-opacity: 1; stroke-width: 3.75; stroke-linecap: butt; stroke-dasharray: 6.35061, 6.35061; stroke-dashoffset: 0;"></path>
        <path d="m 62.328321,117.43115 c 2.292055,-0.018 4.644041,0.14634 7.251787,0.75613"
              style="fill: none; stroke-linecap: butt; stroke-linejoin: round; stroke-miterlimit: 4; stroke-opacity: 1; stroke-width: 3.75; stroke-linecap: butt; stroke-dasharray: 7.30908, 7.30908; stroke-dashoffset: 0;"></path>
        <path d="M 75.122671,125.83719 91.541922,110.36286"
              style="fill: none; stroke-linecap: butt; stroke-linejoin: round; stroke-miterlimit: 4; stroke-opacity: 1; stroke-width: 3.75; stroke-linecap: butt; stroke-dasharray: 22.5621, 22.5621; stroke-dashoffset: 0;"></path>
        <path d="m 75.199056,110.4711 16.411387,15.41482"
              style="fill: none; stroke-linecap: butt; stroke-linejoin: round; stroke-miterlimit: 4; stroke-opacity: 1; stroke-width: 3.75; stroke-linecap: butt; stroke-dasharray: 22.5156, 22.5156; stroke-dashoffset: 0;"></path>
    </g>
</svg>
